HIERARCHY
ROOT hip
{
  OFFSET 0 0 0
  CHANNELS 6 Xposition Yposition Zposition Zrotation Yrotation Xrotation
  JOINT abdomen
  {
    OFFSET 0 20.6881 -0.73152
    CHANNELS 3 Zrotation Xrotation Yrotation
    JOINT chest
    {
      OFFSET 0 11.7043 -0.48768
      CHANNELS 3 Zrotation Xrotation Yrotation
      JOINT neck
      {
        OFFSET 0 22.1894 -2.19456
        CHANNELS 3 Zrotation Xrotation Yrotation
        JOINT head
        {
          OFFSET -0.24384 7.07133 1.2192
          CHANNELS 3 Zrotation Xrotation Yrotation
          JOINT leftEye
          {
            OFFSET 4.14528 8.04674 8.04672
            CHANNELS 3 Zrotation Xrotation Yrotation
            End Site
            {
              OFFSET 1 0 0
            }
          }
          JOINT rightEye
          {
            OFFSET -3.6576 8.04674 8.04672
            CHANNELS 3 Zrotation Xrotation Yrotation
            End Site
            {
              OFFSET 1 0 0
            }
          }
        }
      }
      JOINT rCollar
      {
        OFFSET -2.68224 19.2634 -4.8768
        CHANNELS 3 Zrotation Xrotation Yrotation
        JOINT rShldr
        {
          OFFSET -8.77824 -1.95073 1.46304
          CHANNELS 3 Zrotation Xrotation Yrotation
          JOINT rForeArm
          {
            OFFSET -28.1742 -1.7115 0.48768
            CHANNELS 3 Zrotation Xrotation Yrotation
            JOINT rHand
            {
              OFFSET -22.5879 0.773209 7.07136
              CHANNELS 3 Zrotation Xrotation Yrotation
              JOINT rThumb1
              {
                OFFSET -1.2192 -0.487915 3.41376
                CHANNELS 3 Zrotation Xrotation Yrotation
                JOINT rThumb2
                {
                  OFFSET -3.37035 -0.52449 3.41376
                  CHANNELS 3 Zrotation Xrotation Yrotation
                  End Site
                  {
                    OFFSET -1.78271 -1.18214 1.43049
                  }
                }
              }
              JOINT rIndex1
              {
                OFFSET -7.75947 0.938293 5.60832
                CHANNELS 3 Zrotation Xrotation Yrotation
                JOINT rIndex2
                {
                  OFFSET -2.54057 -0.884171 1.56538
                  CHANNELS 3 Zrotation Xrotation Yrotation
                  End Site
                  {
                    OFFSET -1.62519 -0.234802 1.16502
                  }
                }
              }
              JOINT rMid1
              {
                OFFSET -8.24714 1.18213 3.41376
                CHANNELS 3 Zrotation Xrotation Yrotation
                JOINT rMid2
                {
                  OFFSET -3.10165 -0.590103 1.0647
                  CHANNELS 3 Zrotation Xrotation Yrotation
                  End Site
                  {
                    OFFSET -2.48547 -0.328903 0.83742
                  }
                }
              }
              JOINT rRing1
              {
                OFFSET -8.82822 0.546677 1.51678
                CHANNELS 3 Zrotation Xrotation Yrotation
                JOINT rRing2
                {
                  OFFSET -2.60934 -0.819778 -0.0198488
                  CHANNELS 3 Zrotation Xrotation Yrotation
                  End Site
                  {
                    OFFSET -2.33842 -0.294052 0.168128
                  }
                }
              }
              JOINT rPinky1
              {
                OFFSET -8.27202 -0.0477905 -0.4584
                CHANNELS 3 Zrotation Xrotation Yrotation
                JOINT rPinky2
                {
                  OFFSET -1.82734 -0.647385 -0.700984
                  CHANNELS 3 Zrotation Xrotation Yrotation
                  End Site
                  {
                    OFFSET -1.69225 -0.51767 -0.607171
                  }
                }
              }
            }
          }
        }
      }
      JOINT lCollar
      {
        OFFSET 2.68224 19.2634 -4.8768
        CHANNELS 3 Zrotation Xrotation Yrotation
        JOINT lShldr
        {
          OFFSET 8.77824 -1.95073 1.46304
          CHANNELS 3 Zrotation Xrotation Yrotation
          JOINT lForeArm
          {
            OFFSET 28.1742 -1.7115 0.48768
            CHANNELS 3 Zrotation Xrotation Yrotation
            JOINT lHand
            {
              OFFSET 22.5879 0.773209 7.07136
              CHANNELS 3 Zrotation Xrotation Yrotation
              JOINT lThumb1
              {
                OFFSET 1.2192 -0.487915 3.41376
                CHANNELS 3 Zrotation Xrotation Yrotation
                JOINT lThumb2
                {
                  OFFSET 3.37035 -0.52449 3.41376
                  CHANNELS 3 Zrotation Xrotation Yrotation
                  End Site
                  {
                    OFFSET 1.78271 -1.18214 1.43049
                  }
                }
              }
              JOINT lIndex1
              {
                OFFSET 7.75947 0.938293 5.60832
                CHANNELS 3 Zrotation Xrotation Yrotation
                JOINT lIndex2
                {
                  OFFSET 2.54057 -0.884171 1.56538
                  CHANNELS 3 Zrotation Xrotation Yrotation
                  End Site
                  {
                    OFFSET 1.62519 -0.234802 1.16502
                  }
                }
              }
              JOINT lMid1
              {
                OFFSET 8.24714 1.18213 3.41376
                CHANNELS 3 Zrotation Xrotation Yrotation
                JOINT lMid2
                {
                  OFFSET 3.10165 -0.590103 1.0647
                  CHANNELS 3 Zrotation Xrotation Yrotation
                  End Site
                  {
                    OFFSET 2.48547 -0.328903 0.83742
                  }
                }
              }
              JOINT lRing1
              {
                OFFSET 8.82822 0.546677 1.51678
                CHANNELS 3 Zrotation Xrotation Yrotation
                JOINT lRing2
                {
                  OFFSET 2.60934 -0.819778 -0.0198488
                  CHANNELS 3 Zrotation Xrotation Yrotation
                  End Site
                  {
                    OFFSET 2.33842 -0.294052 0.168128
                  }
                }
              }
              JOINT lPinky1
              {
                OFFSET 8.27202 -0.0477905 -0.4584
                CHANNELS 3 Zrotation Xrotation Yrotation
                JOINT lPinky2
                {
                  OFFSET 1.82734 -0.647385 -0.700984
                  CHANNELS 3 Zrotation Xrotation Yrotation
                  End Site
                  {
                    OFFSET 1.69225 -0.51767 -0.607171
                  }
                }
              }
            }
          }
        }
      }
    }
  }
  JOINT rButtock
  {
    OFFSET -8.77824 4.35084 1.2192
    CHANNELS 3 Zrotation Xrotation Yrotation
    JOINT rThigh
    {
      OFFSET 0 -1.70687 -2.19456
      CHANNELS 3 Zrotation Xrotation Yrotation
      JOINT rShin
      {
        OFFSET 0 -36.8199 0.73152
        CHANNELS 3 Zrotation Xrotation Yrotation
        JOINT rFoot
        {
          OFFSET 0.73152 -45.1104 -5.12064
          CHANNELS 3 Zrotation Xrotation Yrotation
          End Site
          {
            OFFSET -1.1221 -3.69964 12.103
          }
        }
      }
    }
  }
  JOINT lButtock
  {
    OFFSET 8.77824 4.35084 1.2192
    CHANNELS 3 Zrotation Xrotation Yrotation
    JOINT lThigh
    {
      OFFSET 0 -1.70687 -2.19456
      CHANNELS 3 Zrotation Xrotation Yrotation
      JOINT lShin
      {
        OFFSET 0 -36.8199 0.73152
        CHANNELS 3 Zrotation Xrotation Yrotation
        JOINT lFoot
        {
          OFFSET -0.73152 -45.1104 -5.12064
          CHANNELS 3 Zrotation Xrotation Yrotation
          End Site
          {
            OFFSET 1.1221 -3.69964 12.103
          }
        }
      }
    }
  }
}
MOTION
Frames:	4
Frame Time:	0.03333
0.015748495235345338 35.62731514482411 0.0661062793666593 -3.1238765716552734 6.516760349273682 4.8779144287109375 -2.352607488632202 14.943288803100586 3.9639525413513184 2.6753008365631104 -9.794384002685547 1.289400577545166 -4.958178997039795 15.452603340148926 -3.3552558422088623 9.004820823669434 -26.233617782592773 -4.854496002197266 0.04071486368775368 0.02443365938961506 -0.018249180167913437 -0.01968093030154705 0.010290758684277534 0.010082926601171494 -0.010932635515928268 -0.016793984919786453 -0.012358524836599827 46.5367317199707 36.203773498535156 17.64195442199707 -28.180036544799805 -32.31753158569336 63.139434814453125 -1.611771583557129 -11.25132942199707 -1.6533188819885254 0.0055829379707574844 0.024795088917016983 -0.044221341609954834 0.015627047047019005 0.01857864111661911 0.0025009452365338802 0.020181898027658463 0.028196273371577263 0.016232244670391083 7.747697353363037 5.482507705688477 0.40894779562950134 -0.020677056163549423 0.01795620657503605 -0.0010797636350616813 2.907776355743408 0.9803594946861267 0.12097526341676712 0.003916610963642597 0.0037379900459200144 0.027577243745326996 10.266324996948242 0.6899859309196472 0.006321377586573362 0.0038490560837090015 0.02353810705244541 -0.0438070110976696 2.2269208431243896 -0.7271526455879211 -0.22222565114498138 0.01830393821001053 -0.002932268427684903 -0.032537929713726044 -52.04205322265625 39.183712005615234 -30.188894271850586 27.526926040649414 -30.486915588378906 -58.912193298339844 1.836092472076416 -13.771114349365234 1.9466620683670044 -0.015006253495812416 -0.027536805719137192 0.01696399413049221 -0.02040718123316765 0.021575961261987686 0.013422182761132717 -0.029497314244508743 0.0023041637614369392 0.0025971950963139534 -7.745041370391846 5.486692428588867 -0.4114655554294586 -0.008434223011136055 0.014376843348145485 -0.01892048306763172 -2.9269559383392334 0.9812173247337341 -0.14274975657463074 0.028248079121112823 -0.0005686511285603046 -0.01281699351966381 -10.260799407958984 0.7253374457359314 -0.06312325596809387 0.05421260744333267 -0.002133839763700962 0.004805299453437328 -2.2037665843963623 -0.7585350275039673 0.1952497810125351 0.0211492832750082 -0.0009360085823573172 -0.0017197169363498688 -27.297353744506836 -38.73219299316406 -23.18153953552246 -1.764412760734558 65.15054321289062 2.8154706954956055 -4.790600299835205 -10.511357307434082 -10.315572738647461 0.026099685579538345 6.967507215449587e-05 -0.0034233611077070236 33.309043884277344 -38.1965446472168 26.44894027709961 1.8223750591278076 66.05374908447266 -2.913559675216675 5.038142681121826 -10.2538480758667 13.683503150939941
0.06622220581956441 35.718525491000456 0.17428564356652446 -3.1967434883117676 6.158198356628418 5.012450695037842 -2.3163704872131348 14.967021942138672 4.023515701293945 2.653714656829834 -9.859210014343262 1.3159054517745972 -4.896216869354248 15.441301345825195 -3.283928632736206 8.964719772338867 -26.231489181518555 -4.726900100708008 0.03599394112825394 0.08085101842880249 -0.03422962501645088 -0.03467870131134987 0.010887693613767624 0.02483847178518772 -0.027638200670480728 -0.003590008709579706 0.008103495463728905 46.65005874633789 36.440696716308594 17.478336334228516 -28.276409149169922 -32.52471160888672 63.318077087402344 -1.5833715200424194 -11.293625831604004 -1.6728957891464233 0.00018101208843290806 0.02474359981715679 -0.0770212933421135 0.05198922008275986 -0.0018762663239613175 0.011627450585365295 0.02383621409535408 0.05847402662038803 0.04744618758559227 7.75881290435791 5.467243671417236 0.4018009901046753 -0.04193413630127907 0.037223584949970245 -0.008804251439869404 2.8871572017669678 0.9914804697036743 0.12407328933477402 0.02113586850464344 0.007644791156053543 0.0614190436899662 10.292306900024414 0.6500710844993591 0.004544985014945269 -0.012374237179756165 0.029918698593974113 -0.09492352604866028 2.228503704071045 -0.7418268322944641 -0.243491530418396 0.02718997932970524 -0.041318368166685104 -0.05481419712305069 -51.89772033691406 39.08640670776367 -30.406251907348633 27.533422470092773 -30.457286834716797 -58.75879669189453 1.8210387229919434 -13.539308547973633 1.9518263339996338 -0.026533465832471848 -0.06460200250148773 -0.030637772753834724 -0.03780415281653404 0.015945805236697197 0.04532754421234131 -0.05341925472021103 -0.006954147946089506 -0.02271982841193676 -7.76863431930542 5.463910102844238 -0.4200900197029114 0.03303443640470505 0.030100924894213676 -0.030762143433094025 -2.9526124000549316 1.001132845878601 -0.19518649578094482 0.054441142827272415 0.02807261236011982 -0.016614262014627457 -10.234993934631348 0.7263357043266296 -0.05905190482735634 0.03854783624410629 -0.006583611946552992 0.030978037044405937 -2.1815853118896484 -0.7840498685836792 0.20799599587917328 0.05020669475197792 -0.025155918672680855 -0.01439058780670166 -27.17958641052246 -38.529232025146484 -23.103483200073242 -1.7537275552749634 65.1213150024414 2.8044161796569824 -4.722099304199219 -10.45403003692627 -10.331058502197266 0.04821700230240822 -0.0019213429186493158 -0.015005886554718018 33.47574234008789 -38.4481315612793 26.6185245513916 1.8960081338882446 66.05439758300781 -3.017218828201294 4.966675758361816 -10.135591506958008 13.584417343139648
0.18153362153424515 30.148519883233398 0.5277140222926723 -150.08831787109375 81.85979461669922 -148.21658325195312 3.808311700820923 18.476314544677734 -5.593181133270264 7.889631271362305 -11.611459732055664 -0.819878876209259 -9.336649894714355 22.84766387939453 -19.217498779296875 23.297210693359375 -30.43734359741211 -31.609901428222656 0.10368003696203232 -0.38852381706237793 0.010457860305905342 -0.1854507178068161 0.415384978055954 -0.0461241640150547 0.15023823082447052 0.14385174214839935 0.01438784971833229 45.869651794433594 18.777053833007812 0.40503644943237305 -26.383127212524414 -42.027957916259766 90.79777526855469 0.1644468456506729 -5.745182037353516 -0.9960508346557617 -0.20928452908992767 -0.232967808842659 0.1429385095834732 -0.02611447311937809 -0.06903323531150818 0.1779123991727829 0.0866953432559967 0.19466769695281982 0.2165895700454712 7.984307765960693 5.457815170288086 0.4183516800403595 -0.4352797865867615 0.13935339450836182 -0.004622483626008034 2.7468652725219727 1.1786271333694458 -0.11173223704099655 0.050715625286102295 0.04336646571755409 0.35102957487106323 9.819149017333984 0.6174061298370361 -0.1146060973405838 -0.19309234619140625 0.2500895857810974 -0.199122354388237 2.1752047538757324 -0.903430700302124 -0.21354667842388153 -0.04015552997589111 -0.2624780833721161 -0.13367287814617157 -56.655582427978516 54.35329818725586 -13.886219024658203 27.346939086914062 -40.83111572265625 -85.19731140136719 1.3034967184066772 -31.269641876220703 3.9389472007751465 0.18947608768939972 0.07731245458126068 0.2081977277994156 -0.043549370020627975 0.1668642908334732 -0.19814737141132355 -0.11867671459913254 -0.031983476132154465 0.2305859923362732 -7.719142913818359 5.38994836807251 -0.6398894786834717 0.4942355453968048 0.043392542749643326 0.06355361640453339 -3.439497232437134 1.0402039289474487 -0.26267361640930176 0.17543984949588776 -0.4759032130241394 -0.12286130338907242 -9.956048011779785 0.7366912364959717 -0.12313137203454971 0.24136784672737122 0.036722324788570404 -0.04645669087767601 -1.9460972547531128 -1.0062947273254395 0.1844274252653122 0.152521550655365 -0.186716690659523 0.1282777190208435 -47.66913986206055 -47.263038635253906 -35.492496490478516 -2.5822155475616455 75.96537780761719 3.803557872772217 1.9699361324310303 -14.544134140014648 2.816154956817627 0.16072753071784973 -0.0184794869273901 -0.17871396243572235 64.20838928222656 -53.57503890991211 50.92820358276367 161.95541381835938 86.36508178710938 -163.81918334960938 3.096123695373535 -22.906370162963867 8.67813777923584
-0.08035066556114735 28.933480456306906 0.7741561321287387 -134.01101684570312 79.5460433959961 -143.27035522460938 0.4839116334915161 20.10346794128418 -5.374308109283447 8.959914207458496 -11.239595413208008 -0.9074376225471497 -8.987295150756836 23.837923049926758 -18.813730239868164 24.133373260498047 -32.47502517700195 -32.17510223388672 0.3179044723510742 0.06954900175333023 -0.03378251940011978 0.006035549566149712 0.19562570750713348 -0.12885227799415588 0.29733172059059143 0.12579354643821716 0.1833728551864624 49.5576286315918 23.41948699951172 -1.9867228269577026 -27.023569107055664 -44.004764556884766 90.66496276855469 -0.17967593669891357 -5.359610080718994 -1.1056164503097534 -0.39405086636543274 0.5810364484786987 -0.20982319116592407 -0.03573429584503174 -0.2566559910774231 0.041576631367206573 0.4041488468647003 0.22864803671836853 0.3932301700115204 8.131391525268555 5.1589531898498535 0.25600162148475647 -0.42103278636932373 -0.027376534417271614 0.1883837878704071 2.8038320541381836 1.2535028457641602 0.3505572974681854 0.42964377999305725 -0.09691987931728363 0.23030219972133636 10.662699699401855 0.6422479748725891 0.1082780733704567 0.239384263753891 0.1675724983215332 -0.08534128963947296 1.9990254640579224 -0.6615710258483887 -0.4695979952812195 0.0027653146535158157 -0.3742973208427429 0.34999823570251465 -61.97774124145508 56.12744140625 -11.6137056350708 27.49535369873047 -42.06816864013672 -86.92324829101562 0.39894670248031616 -27.66058349609375 3.4379146099090576 0.18282270431518555 -0.11722227185964584 0.014048291370272636 0.07998812198638916 0.18341627717018127 -0.38944998383522034 -0.07964946329593658 0.005901210475713015 0.01365711446851492 -7.745547771453857 5.601170539855957 -0.3584038317203522 0.11432474106550217 0.2212366908788681 0.13478222489356995 -3.085475444793701 1.286071538925171 -0.004088998772203922 -0.1165129765868187 -0.3773762583732605 0.0167041327804327 -10.18549919128418 0.8287136554718018 0.12169300764799118 0.18604618310928345 -0.10015031695365906 0.19437852501869202 -1.9917861223220825 -0.8165852427482605 0.11016365140676498 -0.015091280452907085 -0.08408713340759277 0.28741922974586487 -46.53250503540039 -51.823524475097656 -33.79399490356445 -4.161634922027588 78.04029846191406 5.712567329406738 4.027340888977051 -16.152097702026367 4.447467803955078 0.17234516143798828 0.20275527238845825 -0.22830335795879364 66.30859375 -55.06591033935547 51.66670227050781 129.9957275390625 88.66410827636719 -132.63909912109375 1.9200263023376465 -23.785171508789062 10.383478164672852
